<svg aria-hidden="true" style="position: absolute; width: 0; height: 0; overflow: hidden;" version="1.1" xmlns="http://www.w3.org/2000/svg" xmlns:xlink="http://www.w3.org/1999/xlink">
<defs>
<symbol id="icon-burger-menu" viewBox="0 0 32 32">
<path d="M26.734 14.666h-21.467c-0.699 0-1.266 0.567-1.266 1.266v0.134c0 0.699 0.567 1.266 1.266 1.266h21.467c0.699 0 1.266-0.567 1.266-1.266v-0.134c0-0.699-0.567-1.266-1.266-1.266zM26.734 21.334h-21.467c-0.699 0-1.266 0.567-1.266 1.266v0.134c0 0.699 0.567 1.266 1.266 1.266h21.467c0.699 0 1.266-0.567 1.266-1.266v-0.134c0-0.699-0.567-1.266-1.266-1.266zM26.734 8h-21.467c-0.698 0-1.266 0.567-1.266 1.266v0.134c0 0.699 0.567 1.266 1.266 1.266h21.467c0.699 0 1.266-0.567 1.266-1.266v-0.134c0-0.698-0.567-1.266-1.266-1.266z"></path>
</symbol>
<symbol id="icon-facebook" viewBox="0 0 32 32">
<path d="M18.666 18.001h3.333l1.334-5.334h-4.666v-2.666c0-1.374 0-2.667 2.666-2.667h2v-4.48c-0.435-0.056-2.076-0.186-3.809-0.186-3.621 0-6.191 2.209-6.191 6.266v3.734h-4v5.334h4v11.333h5.334v-11.333z"></path>
</symbol>
<symbol id="icon-instagram" viewBox="0 0 32 32">
<path d="M16 0c-4.349 0-4.891 0.021-6.593 0.093-1.709 0.085-2.865 0.35-3.885 0.745-1.109 0.426-2.054 1.054-2.832 1.848l-0.001 0.001c-0.797 0.778-1.426 1.723-1.831 2.78l-0.018 0.053c-0.394 1.021-0.661 2.176-0.745 3.886-0.077 1.703-0.093 2.242-0.093 6.591 0 4.35 0.021 4.891 0.093 6.594 0.085 1.703 0.35 2.864 0.745 3.883 0.403 1.069 1.034 2.034 1.849 2.834 0.778 0.797 1.723 1.426 2.78 1.83l0.053 0.018c1.019 0.391 2.181 0.662 3.886 0.745 1.703 0.078 2.243 0.094 6.592 0.094 4.35 0 4.891-0.022 6.594-0.094 1.703-0.083 2.864-0.354 3.885-0.745 1.108-0.426 2.053-1.055 2.831-1.848l0.001-0.001c0.798-0.777 1.428-1.723 1.831-2.78l0.018-0.053c0.391-1.019 0.662-2.181 0.745-3.885 0.077-1.703 0.093-2.243 0.093-6.593 0-4.349-0.021-4.891-0.091-6.593-0.085-1.703-0.355-2.871-0.746-3.885-0.426-1.109-1.054-2.054-1.848-2.832l-0.001-0.001c-0.776-0.797-1.721-1.427-2.778-1.83l-0.053-0.018c-1.021-0.395-2.182-0.661-3.886-0.745-1.703-0.077-2.245-0.093-6.594-0.093zM16 2.88c4.271 0 4.782 0.021 6.469 0.093 1.558 0.073 2.406 0.334 2.969 0.553 0.696 0.257 1.326 0.666 1.843 1.198 0.53 0.515 0.937 1.143 1.192 1.839 0.221 0.562 0.48 1.41 0.553 2.968 0.072 1.688 0.093 2.199 0.093 6.469s-0.021 4.782-0.098 6.469c-0.085 1.558-0.344 2.406-0.563 2.969-0.279 0.72-0.686 1.335-1.198 1.843l-0 0c-0.507 0.514-1.122 0.92-1.809 1.18l-0.035 0.012c-0.557 0.219-1.417 0.48-2.979 0.553-1.697 0.072-2.197 0.093-6.48 0.093-4.281 0-4.781-0.021-6.48-0.098-1.557-0.085-2.415-0.344-2.978-0.563-0.76-0.303-1.28-0.64-1.839-1.2-0.563-0.562-0.921-1.097-1.197-1.843-0.224-0.555-0.48-1.416-0.563-2.978-0.057-1.678-0.085-2.198-0.085-6.459 0-4.259 0.027-4.781 0.085-6.479 0.083-1.563 0.339-2.421 0.563-2.979 0.275-0.76 0.634-1.28 1.197-1.843 0.557-0.558 1.079-0.918 1.84-1.2 0.562-0.217 1.4-0.478 2.963-0.557 1.696-0.059 2.195-0.082 6.473-0.082l0.065 0.046zM16 7.787c-0.001 0-0.003 0-0.005 0-4.534 0-8.21 3.676-8.21 8.21 0 1.135 0.23 2.216 0.647 3.199l-0.020-0.054c1.265 3.003 4.184 5.072 7.586 5.072 1.135 0 2.216-0.23 3.199-0.647l-0.054 0.020c3.003-1.265 5.072-4.184 5.072-7.586 0-0.001 0-0.002 0-0.003v0c0-0.001 0-0.002 0-0.003 0-4.534-3.675-8.209-8.209-8.209-0.002 0-0.004 0-0.006 0h0zM16 21.333c-0.001 0-0.002 0-0.003 0-2.943 0-5.329-2.386-5.329-5.329 0-0.001 0-0.002 0-0.004v0c0-0.001 0-0.002 0-0.003 0-2.943 2.386-5.329 5.329-5.329 0.001 0 0.002 0 0.004 0h-0c0.001 0 0.003 0 0.005 0 2.943 0 5.329 2.386 5.329 5.329 0 0.001 0 0.002 0 0.004v-0c0 0.001 0 0.002 0 0.003 0 2.943-2.386 5.329-5.329 5.329-0.002 0-0.003 0-0.005 0h0zM26.464 7.458c-0.005 1.058-0.864 1.914-1.923 1.914-0.793 0-1.473-0.479-1.768-1.164l-0.005-0.012c-0.093-0.217-0.146-0.47-0.146-0.735 0-1.060 0.859-1.919 1.919-1.919 0 0 0.001 0 0.001 0h-0c1.056 0 1.922 0.861 1.922 1.918z"></path>
</symbol>
<symbol id="icon-phone" viewBox="0 0 32 32">
<path d="M8.193 1.157c1.169 1.613 2.563 3.693 4.176 6.237 0.405 0.688 0.343 1.512-0.181 2.481-0.2 0.407-0.707 1.331-1.513 2.787 0.888 1.251 2.237 2.788 4.056 4.6 1.819 1.813 3.332 3.169 4.539 4.057 1.449-0.851 2.381-1.369 2.787-1.575 0.525-0.281 1.032-0.427 1.513-0.427 0.361 0 0.687 0.083 0.968 0.245 1.856 1.131 3.956 2.524 6.293 4.173 0.444 0.327 0.693 0.769 0.757 1.333 0.063 0.568-0.113 1.168-0.513 1.817-0.2 0.281-0.524 0.693-0.968 1.244-0.444 0.544-1.113 1.232-2 2.056-0.888 0.827-1.613 1.244-2.181 1.244h-0.063c-4.269-0.168-9.532-3.368-15.763-9.6-6.237-6.237-9.437-11.493-9.6-15.768 0-0.563 0.413-1.3 1.244-2.213 0.825-0.907 1.507-1.563 2.025-1.968 0.524-0.4 0.968-0.725 1.331-0.969 0.407-0.3 0.918-0.48 1.471-0.48 0.014 0 0.029 0 0.043 0l-0.002-0c0.693 0 1.213 0.243 1.581 0.724zM6.193 2.425c-0.849 0.607-1.644 1.288-2.393 2.032-0.744 0.749-1.181 1.3-1.3 1.663 0.163 3.756 3.156 8.537 8.987 14.349 5.832 5.813 10.627 8.819 14.376 9.019 0.325-0.119 0.856-0.563 1.607-1.331 0.716-0.732 1.38-1.521 1.983-2.358l0.041-0.061c0.12-0.163 0.163-0.3 0.12-0.425-2.42-1.693-4.439-3.044-6.057-4.056-0.163 0-0.363 0.063-0.607 0.181-0.361 0.2-1.268 0.707-2.724 1.512l-1.032 0.607-1.031-0.669c-1.332-0.925-2.944-2.363-4.844-4.3-1.893-1.893-3.307-3.512-4.237-4.844l-0.725-0.968 0.607-1.088c0.807-1.449 1.312-2.363 1.512-2.724 0.12-0.244 0.181-0.444 0.181-0.607-1.625-2.614-2.938-4.587-4.297-6.526l0.315 0.475h-0.061c-0.001 0-0.002 0-0.003 0-0.154 0-0.298 0.045-0.419 0.122l0.003-0.002z"></path>
</symbol>
<symbol id="icon-telegram" viewBox="0 0 32 32">
<path d="M27.613 5.527s2.59-0.951 2.374 1.358c-0.072 0.951-0.719 4.278-1.224 7.876l-1.725 10.661s-0.144 1.562-1.439 1.833c-1.295 0.271-3.238-0.951-3.597-1.223-0.288-0.203-5.397-3.259-7.195-4.753-0.504-0.408-1.080-1.222 0.072-2.172l7.555-6.791c0.864-0.814 1.727-2.715-1.87-0.408l-10.073 6.451s-1.151 0.679-3.309 0.068l-4.678-1.358s-1.726-1.018 1.224-2.037c7.195-3.191 16.045-6.451 23.887-9.506z"></path>
</symbol>
<symbol id="icon-checkmark" viewBox="0 0 32 32">
<path d="M28.281 6.279l-17.28 17.28-7.28-7.278-1.44 1.438 8 8 0.72 0.686 0.72-0.686 18-18.002-1.44-1.44z"></path>
</symbol>
<symbol id="icon-close" viewBox="0 0 32 32">
<path d="M8.533 24.409l-0.947-0.943 7.467-7.467-7.467-7.467 0.944-0.944 7.467 7.467 7.467-7.467 0.944 0.944-7.467 7.467 7.467 7.467-0.944 0.944-7.467-7.467-7.467 7.467z"></path>
</symbol>
<symbol id="icon-arrow" viewBox="0 0 32 32">
<path d="M22.587 24.413l8.413-8.413-8.413-8.413-1.415 1.413 6 6h-26.124v2h26.124l-6 6 1.413 1.413z"></path>
</symbol>
<symbol id="icon-search-icon" viewBox="0 0 32 32">
<path d="M13.667 2.667c0 0 0.001 0 0.001 0 6.075 0 11 4.925 11 11 0 2.686-0.963 5.147-2.562 7.057l0.014-0.017 7.587 7.587c0.196 0.183 0.318 0.443 0.318 0.732 0 0.552-0.448 1-1 1-0.289 0-0.549-0.122-0.731-0.318l-0.001-0.001-7.587-7.587c-1.893 1.584-4.353 2.547-7.039 2.547-6.075 0-11-4.925-11-11s4.924-10.999 10.998-11h0zM4.667 13.667c0 4.971 4.029 9 9 9s9-4.029 9-9v0c0-4.971-4.029-9-9-9s-9 4.029-9 9v0z"></path>
</symbol>
<symbol id="icon-arrow-back" viewBox="0 0 32 32">
<path d="M16 5.334l-0.472-0.472 0.472-0.471 0.472 0.471-0.472 0.472zM16.667 25.334c0 0.368-0.299 0.667-0.667 0.667s-0.667-0.299-0.667-0.667v0h1.333zM7.528 12.862l8-8 0.944 0.944-8 8-0.944-0.944zM16.472 4.862l8 8-0.944 0.944-8-8 0.944-0.944zM16.667 5.334v20h-1.334v-20h1.333z"></path>
</symbol>
</defs>
</svg>
