<svg xmlns="http://www.w3.org/2000/svg" width="187" height="72" fill="none"><path fill="#463530" d="M33.92 37.19c.38 0 .7.08.96.24.26.16.45.37.57.63.14.26.21.55.21.87 0 .3-.07.6-.21.9-.04.06-.09.08-.15.06a.29.29 0 0 1-.15-.12c-.04-.4-.23-.75-.57-1.05-.32-.32-.83-.48-1.53-.48-.76 0-1.49.2-2.19.6-.68.4-1.38 1.1-2.1 2.1-.7 1-1.42 2.35-2.16 4.05-.72 1.7-1.5 3.85-2.34 6.45.46-.02.94-.03 1.44-.03h1.59c.1.04.14.1.12.18 0 .06-.09.11-.27.15l-1.5.06c-.5.02-1.01.05-1.53.09-.06.22-.13.42-.21.6-.82 2.62-1.66 4.81-2.52 6.57-.86 1.78-1.74 3.2-2.64 4.26-.9 1.08-1.81 1.84-2.73 2.28-.94.46-1.89.69-2.85.69-.68 0-1.16-.15-1.44-.45-.3-.3-.45-.65-.45-1.05 0-.18.04-.38.12-.6.08-.2.18-.38.3-.54.06-.06.12-.07.18-.03.04.04.06.09.06.15-.08.16-.11.34-.09.54.02.22.11.42.27.6.14.2.36.36.66.48.28.14.65.21 1.11.21.48 0 .96-.06 1.44-.18.46-.12.93-.35 1.41-.69.46-.32.93-.78 1.41-1.38.46-.6.94-1.39 1.44-2.37.5-.96 1.02-2.13 1.56-3.51s1.1-3.02 1.68-4.92c.04-.1.07-.19.09-.27.02-.1.05-.2.09-.3-.34.04-.68.09-1.02.15-.34.04-.68.1-1.02.18-.1-.02-.13-.07-.09-.15.06-.08.15-.16.27-.24.14-.08.3-.15.48-.21.18-.08.35-.13.51-.15.16-.02.32-.03.48-.03l.54-.06c.72-2.16 1.49-4.11 2.31-5.85.84-1.76 1.72-3.26 2.64-4.5.92-1.26 1.87-2.23 2.85-2.91.98-.68 1.97-1.02 2.97-1.02ZM29.037 59c-.26 0-.49-.12-.69-.36-.2-.26-.3-.59-.3-.99 0-.32.04-.69.12-1.11.1-.44.22-.9.36-1.38.16-.48.35-.96.57-1.44.22-.48.47-.93.75-1.35-.22.16-.45.34-.69.54-.24.18-.44.35-.6.51-.06.04-.11.03-.15-.03-.04-.08-.05-.15-.03-.21.14-.14.32-.3.54-.48.22-.18.45-.36.69-.54.26-.18.52-.35.78-.51.28-.18.54-.33.78-.45.08-.02.14 0 .18.06.06.06.08.13.06.21-.64.82-1.16 1.73-1.56 2.73-.38.98-.57 1.92-.57 2.82 0 .58.17.87.51.87.26 0 .58-.17.96-.51.4-.36.81-.82 1.23-1.38.42-.58.84-1.23 1.26-1.95.44-.72.84-1.45 1.2-2.19.06-.14.17-.26.33-.36.18-.12.37-.18.57-.18.26 0 .35.08.27.24-.28.52-.53 1.01-.75 1.47-.22.44-.4.88-.54 1.32-.14.44-.25.89-.33 1.35-.06.46-.09.96-.09 1.5 0 .64.18.96.54.96.16 0 .34-.08.54-.24.2-.18.4-.41.6-.69a.15.15 0 0 1 .18 0c.06.04.07.11.03.21-.28.42-.61.79-.99 1.11-.36.3-.71.45-1.05.45-.26 0-.48-.13-.66-.39-.18-.26-.27-.61-.27-1.05 0-.48.04-.99.12-1.53.1-.56.25-1.12.45-1.68-.38.74-.78 1.4-1.2 1.98-.42.56-.83 1.04-1.23 1.44-.38.4-.74.71-1.08.93-.34.2-.62.3-.84.3Zm13.045-6.84c0 .3-.03.65-.09 1.05s-.14.8-.24 1.2c.4-.96.84-1.71 1.32-2.25.48-.56 1-.84 1.56-.84.22 0 .42.06.6.18s.27.29.27.51c0 .16-.06.37-.18.63-.12.24-.24.42-.36.54-.12.08-.18.05-.18-.09 0-.34-.23-.51-.69-.51-.7 0-1.33.53-1.89 1.59-.56 1.04-1.09 2.49-1.59 4.35-.04.2-.18.33-.42.39-.22.06-.41.09-.57.09-.22 0-.27-.11-.15-.33.18-.42.35-.87.51-1.35.16-.5.31-1 .45-1.5.16-.5.29-.99.39-1.47.1-.48.18-.92.24-1.32.08-.6-.02-.9-.3-.9-.16 0-.35.09-.57.27-.2.18-.39.39-.57.63-.08.04-.15.04-.21 0-.06-.06-.07-.13-.03-.21.3-.38.63-.72.99-1.02.38-.32.73-.48 1.05-.48.44 0 .66.28.66.84Zm13.09 4.92a.15.15 0 0 1 .18 0c.06.04.08.1.06.18-.34.46-.72.87-1.14 1.23-.4.34-.78.51-1.14.51-.62 0-.93-.4-.93-1.2 0-.68.12-1.43.36-2.25.24-.84.57-1.68.99-2.52a.84.84 0 0 0 .12-.42c0-.22-.1-.33-.3-.33-.74 0-1.56.51-2.46 1.53-.88 1.02-1.7 2.62-2.46 4.8-.04.12-.15.22-.33.3-.18.06-.35.09-.51.09-.22 0-.3-.09-.24-.27.34-.86.69-1.83 1.05-2.91.38-1.08.71-2.15.99-3.21.08-.38.01-.57-.21-.57-.2 0-.4.1-.6.3-.2.2-.41.46-.63.78-.04.04-.09.03-.15-.03a.198.198 0 0 1-.03-.18c.22-.34.52-.69.9-1.05.38-.36.79-.54 1.23-.54.5 0 .67.34.51 1.02-.08.44-.19.91-.33 1.41-.14.48-.29.96-.45 1.44.28-.54.61-1.05.99-1.53s.77-.89 1.17-1.23c.42-.34.83-.61 1.23-.81.42-.2.81-.3 1.17-.3.24 0 .42.06.54.18.14.12.21.26.21.42 0 .26-.06.52-.18.78-.42.76-.78 1.56-1.08 2.4-.28.82-.42 1.58-.42 2.28 0 .5.16.75.48.75.42 0 .89-.35 1.41-1.05Zm4.23-3.66c-.06.04-.12.03-.18-.03-.04-.08-.04-.15 0-.21.28-.28.66-.6 1.14-.96.48-.36.96-.66 1.44-.9.16 0 .24.09.24.27-.26.46-.52.96-.78 1.5-.24.54-.46 1.08-.66 1.62-.18.52-.33 1.03-.45 1.53-.12.48-.18.88-.18 1.2 0 .42.14.63.42.63.22 0 .43-.09.63-.27.22-.2.47-.46.75-.78.04-.04.09-.03.15.03s.07.13.03.21c-.36.44-.75.84-1.17 1.2-.4.36-.78.54-1.14.54-.52 0-.78-.33-.78-.99 0-.38.06-.83.18-1.35.14-.54.31-1.08.51-1.62s.42-1.06.66-1.56c.26-.5.51-.93.75-1.29-.22.16-.5.37-.84.63-.32.24-.56.44-.72.6Zm2.7-3.39c-.06.06-.12.07-.18.03a.667.667 0 0 1-.09-.21c-.02-.1-.03-.21-.03-.33 0-.12.03-.22.09-.3.52-.72 1.25-1.49 2.19-2.31.06-.02.12 0 .18.06.06.04.07.08.03.12-.42.38-.82.84-1.2 1.38-.38.52-.71 1.04-.99 1.56Zm8.803 1.41c.1.04.14.1.12.18-.02.08-.11.13-.27.15-.32.02-.68.04-1.08.06-.38.02-.77.05-1.17.09-.4 1-.73 1.96-.99 2.88-.26.92-.39 1.68-.39 2.28 0 .68.26 1.02.78 1.02s1.09-.46 1.71-1.38c.06-.04.12-.03.18.03.06.04.08.11.06.21-.18.28-.39.55-.63.81-.22.24-.45.45-.69.63-.24.18-.47.33-.69.45-.22.1-.4.15-.54.15-.44 0-.77-.13-.99-.39-.2-.28-.3-.61-.3-.99 0-.66.14-1.49.42-2.49.28-1 .63-2.03 1.05-3.09a60.836 60.836 0 0 0-1.44.24c-.1-.02-.13-.07-.09-.15.06-.08.15-.16.27-.24.14-.08.3-.15.48-.21.18-.08.35-.12.51-.12.1-.02.18-.03.24-.03h.24c.28-.62.56-1.21.84-1.77.28-.58.56-1.11.84-1.59.12-.12.25-.22.39-.3.16-.1.31-.16.45-.18a.67.67 0 0 1 .33-.03c.08 0 .11.03.09.09-.34.52-.68 1.1-1.02 1.74-.32.64-.63 1.3-.93 1.98h1.08c.36-.02.74-.03 1.14-.03ZM74.202 59c-.26 0-.49-.12-.69-.36-.2-.26-.3-.59-.3-.99 0-.32.04-.69.12-1.11.1-.44.22-.9.36-1.38.16-.48.35-.96.57-1.44.22-.48.47-.93.75-1.35-.22.16-.45.34-.69.54-.24.18-.44.35-.6.51-.06.04-.11.03-.15-.03-.04-.08-.05-.15-.03-.21.14-.14.32-.3.54-.48.22-.18.45-.36.69-.54.26-.18.52-.35.78-.51.28-.18.54-.33.78-.45.08-.02.14 0 .18.06.06.06.08.13.06.21-.64.82-1.16 1.73-1.56 2.73-.38.98-.57 1.92-.57 2.82 0 .58.17.87.51.87.26 0 .58-.17.96-.51.4-.36.81-.82 1.23-1.38.42-.58.84-1.23 1.26-1.95.44-.72.84-1.45 1.2-2.19.06-.14.17-.26.33-.36.18-.12.37-.18.57-.18.26 0 .35.08.27.24-.28.52-.53 1.01-.75 1.47-.22.44-.4.88-.54 1.32-.14.44-.25.89-.33 1.35-.06.46-.09.96-.09 1.5 0 .64.18.96.54.96.16 0 .34-.08.54-.24.2-.18.4-.41.6-.69a.15.15 0 0 1 .18 0c.06.04.07.11.03.21-.28.42-.61.79-.99 1.11-.36.3-.71.45-1.05.45-.26 0-.48-.13-.66-.39-.18-.26-.27-.61-.27-1.05 0-.48.04-.99.12-1.53.1-.56.25-1.12.45-1.68-.38.74-.78 1.4-1.2 1.98-.42.56-.83 1.04-1.23 1.44-.38.4-.74.71-1.08.93-.34.2-.62.3-.84.3Zm13.044-6.84c0 .3-.03.65-.09 1.05s-.14.8-.24 1.2c.4-.96.84-1.71 1.32-2.25.48-.56 1-.84 1.56-.84.22 0 .42.06.6.18s.27.29.27.51c0 .16-.06.37-.18.63-.12.24-.24.42-.36.54-.12.08-.18.05-.18-.09 0-.34-.23-.51-.69-.51-.7 0-1.33.53-1.89 1.59-.56 1.04-1.09 2.49-1.59 4.35-.04.2-.18.33-.42.39-.22.06-.41.09-.57.09-.22 0-.27-.11-.15-.33.18-.42.35-.87.51-1.35.16-.5.31-1 .45-1.5.16-.5.29-.99.39-1.47.1-.48.18-.92.24-1.32.08-.6-.02-.9-.3-.9-.16 0-.35.09-.57.27-.2.18-.39.39-.57.63-.08.04-.15.04-.21 0-.06-.06-.07-.13-.03-.21.3-.38.63-.72.99-1.02.38-.32.73-.48 1.05-.48.44 0 .66.28.66.84Zm10.81.48c0 .28-.11.54-.33.78-.22.24-.52.46-.9.66-.38.18-.82.35-1.32.51-.48.16-.99.31-1.53.45l-.06.66v.72c0 .5.11.92.33 1.26.22.34.53.51.93.51s.77-.1 1.11-.3c.36-.2.68-.47.96-.81.08-.04.14-.03.18.03.04.06.04.13 0 .21-.34.46-.77.86-1.29 1.2a2.9 2.9 0 0 1-1.59.48c-.52 0-.95-.17-1.29-.51-.32-.34-.48-.84-.48-1.5 0-.6.11-1.23.33-1.89.22-.68.51-1.3.87-1.86s.77-1.02 1.23-1.38c.48-.36.98-.54 1.5-.54.38 0 .7.14.96.42.26.26.39.56.39.9Zm-1.98-.54c-.46 0-.87.2-1.23.6-.36.4-.62 1.03-.78 1.89.96-.14 1.66-.34 2.1-.6.46-.28.69-.59.69-.93 0-.28-.07-.51-.21-.69a.684.684 0 0 0-.57-.27Zm15.463-.78c.4 0 .73.07.99.21.28.12.42.26.42.42 0 .22-.05.47-.15.75-.08.28-.17.51-.27.69-.04.04-.1.05-.18.03-.06-.04-.08-.09-.06-.15.06-.14.1-.3.12-.48.02-.18.01-.34-.03-.48-.1-.4-.38-.6-.84-.6-.34 0-.62.1-.84.3-.2.2-.3.5-.3.9 0 .32.08.63.24.93.18.28.37.57.57.87.22.28.41.59.57.93.18.32.27.68.27 1.08 0 .64-.23 1.18-.69 1.62-.44.44-1.11.66-2.01.66-.62 0-1.13-.11-1.53-.33-.4-.22-.6-.45-.6-.69 0-.18.11-.45.33-.81.22-.36.47-.65.75-.87.06-.04.11-.03.15.03.06.06.07.12.03.18-.16.16-.28.35-.36.57-.08.2-.1.38-.06.54.06.34.21.6.45.78.26.16.56.24.9.24.52 0 .92-.14 1.2-.42.3-.28.45-.64.45-1.08 0-.38-.09-.73-.27-1.05a7.76 7.76 0 0 0-.6-.96c-.2-.32-.39-.63-.57-.93a2.25 2.25 0 0 1-.24-1.02c0-.52.19-.96.57-1.32.4-.36.93-.54 1.59-.54Zm4.664 7.41c.9-3.44 1.91-6.54 3.03-9.3 1.12-2.76 2.29-5.11 3.51-7.05 1.24-1.94 2.5-3.43 3.78-4.47 1.28-1.06 2.52-1.59 3.72-1.59.44 0 .8.09 1.08.27.3.16.5.37.6.63.12.26.15.55.09.87-.04.32-.18.63-.42.93-.04.06-.09.08-.15.06-.06-.02-.09-.07-.09-.15.08-.4-.04-.78-.36-1.14-.32-.36-.83-.54-1.53-.54-.94 0-1.9.37-2.88 1.11-.98.74-1.96 1.88-2.94 3.42-.98 1.52-1.95 3.44-2.91 5.76-.94 2.32-1.85 5.07-2.73 8.25.32-.62.69-1.2 1.11-1.74.42-.56.85-1.04 1.29-1.44.44-.4.88-.71 1.32-.93.46-.24.9-.36 1.32-.36.24 0 .42.06.54.18.12.12.18.26.18.42 0 .26-.09.55-.27.87-.42.74-.77 1.5-1.05 2.28-.26.78-.39 1.49-.39 2.13 0 .28.03.51.09.69.08.18.2.27.36.27.2 0 .41-.1.63-.3.24-.22.45-.46.63-.72.06-.04.12-.03.18.03.06.04.08.1.06.18-.12.18-.27.37-.45.57-.18.18-.38.36-.6.54-.2.16-.41.29-.63.39-.22.1-.42.15-.6.15-.5 0-.75-.42-.75-1.26 0-.72.12-1.5.36-2.34.24-.86.53-1.62.87-2.28.12-.2.18-.37.18-.51 0-.18-.11-.27-.33-.27-.36 0-.75.14-1.17.42-.42.28-.85.69-1.29 1.23-.44.54-.86 1.2-1.26 1.98-.4.76-.76 1.62-1.08 2.58-.04.14-.15.25-.33.33-.16.08-.32.12-.48.12-.22 0-.3-.09-.24-.27Zm15.24-7.41c.54 0 .94.18 1.2.54.26.36.39.83.39 1.41 0 .68-.13 1.36-.39 2.04-.26.68-.59 1.3-.99 1.86-.4.54-.84.98-1.32 1.32-.46.34-.89.51-1.29.51-.48 0-.86-.19-1.14-.57-.28-.38-.42-.92-.42-1.62 0-.56.11-1.16.33-1.8.22-.64.51-1.23.87-1.77.38-.56.8-1.02 1.26-1.38.48-.36.98-.54 1.5-.54Zm-1.8 6.75c.3 0 .59-.1.87-.3.3-.22.56-.5.78-.84.22-.36.39-.77.51-1.23.14-.46.21-.94.21-1.44 0-.6-.1-1.07-.3-1.41-.2-.36-.53-.54-.99-.54-.3 0-.59.11-.87.33-.28.2-.53.48-.75.84-.2.34-.36.75-.48 1.23-.12.46-.18.95-.18 1.47 0 1.26.4 1.89 1.2 1.89Zm12.288-6.72c.4 0 .72.18.96.54.24.36.36.82.36 1.38 0 .78-.14 1.52-.42 2.22-.26.68-.63 1.29-1.11 1.83-.46.52-1.01.94-1.65 1.26-.64.3-1.34.45-2.1.45-.34 0-.62-.07-.84-.21-.34 1-.65 2.06-.93 3.18-.28 1.14-.42 2.2-.42 3.18 0 .44.23.63.69.57.3-.06.6-.18.9-.36.06-.02.09.01.09.09.02.1.01.18-.03.24-.24.14-.57.28-.99.42-.42.14-.82.21-1.2.21-.16 0-.29-.04-.39-.12-.1-.06-.15-.18-.15-.36 0-1.02.16-2.2.48-3.54.32-1.34.74-2.73 1.26-4.17l-.12-.18-.06-.24c-.02-.08.13-.17.45-.27.26-.72.54-1.44.84-2.16.3-.72.6-1.42.9-2.1.38-.84.55-1.35.51-1.53-.02-.2-.14-.24-.36-.12a4.197 4.197 0 0 0-.99.81c-.04.04-.09.03-.15-.03-.04-.08-.05-.14-.03-.18.12-.14.28-.3.48-.48.2-.18.4-.35.6-.51.22-.18.43-.33.63-.45.22-.12.41-.18.57-.18.16 0 .26.09.3.27.06.16.03.38-.09.66-.12.34-.28.74-.48 1.2-.18.44-.38.88-.6 1.32.56-.84 1.11-1.49 1.65-1.95.54-.46 1.02-.69 1.44-.69Zm-3.21 7.08c.5 0 .96-.11 1.38-.33.44-.22.81-.52 1.11-.9.32-.4.56-.86.72-1.38.18-.54.27-1.13.27-1.77 0-.48-.09-.87-.27-1.17-.16-.32-.42-.48-.78-.48-.46 0-1.01.41-1.65 1.23-.64.82-1.23 1.98-1.77 3.48l-.12.3c-.02.1-.05.2-.09.3.1.22.24.4.42.54.2.12.46.18.78.18Z"/><path fill="#463530" d="M3.95 8.5h1.6c2.633 0 4.567.617 5.8 1.85 1.233 1.2 1.85 2.983 1.85 5.35 0 1.367-.4 2.683-1.2 3.95-.8 1.233-1.767 2.067-2.9 2.5 2.867.467 5.083 1.667 6.65 3.6 1.567 1.933 2.35 4.467 2.35 7.6 0 2.5-.55 4.717-1.65 6.65a11.679 11.679 0 0 1-4.55 4.45C10 45.483 7.883 46 5.55 46h-1.6V8.5Zm2 13.2c1.6 0 2.95-.583 4.05-1.75 1.1-1.167 1.65-2.6 1.65-4.3 0-1.9-.467-3.333-1.4-4.3-.9-.967-2.333-1.45-4.3-1.45h-.4v11.8h.4Zm0 22.9c1.967 0 3.75-.467 5.35-1.4 1.6-.967 2.867-2.3 3.8-4 .933-1.7 1.4-3.617 1.4-5.75 0-3.433-.917-6.017-2.75-7.75-1.8-1.767-4.4-2.65-7.8-2.65h-.4V44.6h.4Zm28.066 2.2c-2.267 0-4.317-.55-6.15-1.65-1.833-1.133-3.267-2.617-4.3-4.45a12.291 12.291 0 0 1-1.55-6.05c0-2.133.517-4.117 1.55-5.95a11.959 11.959 0 0 1 4.3-4.35c1.833-1.1 3.867-1.65 6.1-1.65 2.2 0 4.2.55 6 1.65a11.464 11.464 0 0 1 4.3 4.35 11.918 11.918 0 0 1 1.55 5.95c0 2.233-.5 4.283-1.5 6.15-1 1.833-2.4 3.3-4.2 4.4-1.767 1.067-3.8 1.6-6.1 1.6Zm0-1.4c1.9 0 3.633-.483 5.2-1.45a10.117 10.117 0 0 0 3.65-3.85c.9-1.633 1.35-3.417 1.35-5.35 0-1.9-.45-3.667-1.35-5.3a10.398 10.398 0 0 0-3.7-3.9c-1.567-.967-3.3-1.45-5.2-1.45-1.9 0-3.65.5-5.25 1.5a10.794 10.794 0 0 0-3.75 3.9c-.9 1.633-1.35 3.4-1.35 5.3s.45 3.667 1.35 5.3a10.918 10.918 0 0 0 3.75 3.85c1.6.967 3.367 1.45 5.3 1.45Zm24.84.9c-2.466 0-4.516-.75-6.15-2.25-1.6-1.5-2.4-3.567-2.4-6.2v-23.4h1.6v9.05h6.9v1.4h-6.9v12.95c0 2.2.65 3.933 1.95 5.2 1.334 1.233 3 1.85 5 1.85v1.4Zm9.656.25c-1.6 0-3.017-.267-4.25-.8-1.233-.567-2.117-1.283-2.65-2.15v-2.65c.633 1.433 1.5 2.5 2.6 3.2 1.1.667 2.5 1 4.2 1 1.633 0 2.95-.5 3.95-1.5 1-1.033 1.5-2.35 1.5-3.95 0-1.367-.283-2.417-.85-3.15-.567-.767-1.483-1.533-2.75-2.3l-1.9-1.1a97.667 97.667 0 0 1-3.1-1.95c-.667-.5-1.2-1.05-1.6-1.65-.4-.633-.6-1.367-.6-2.2 0-1.333.467-2.4 1.4-3.2.933-.8 2.15-1.2 3.65-1.2 1.833 0 3.367.417 4.6 1.25v2.2c-1.033-1.367-2.517-2.05-4.45-2.05-1.067 0-1.933.267-2.6.8s-1 1.217-1 2.05c0 .733.2 1.383.6 1.95.4.533.95 1.033 1.65 1.5.733.467 1.933 1.167 3.6 2.1 1.7.967 2.95 1.967 3.75 3 .8 1 1.2 2.317 1.2 3.95 0 2.067-.683 3.733-2.05 5-1.333 1.233-2.967 1.85-4.9 1.85ZM80.445 23.5h1.6v3.4c1.533-2.633 4-3.95 7.4-3.95 1.633 0 3.05.467 4.25 1.4 1.2.9 2.033 2.267 2.5 4.1.433-1.633 1.383-2.95 2.85-3.95 1.5-1.033 3.183-1.55 5.05-1.55 2.433 0 4.317.717 5.65 2.15 1.333 1.4 2 3.4 2 6V46h-1.6V31.1c0-2.1-.55-3.75-1.65-4.95-1.067-1.2-2.483-1.8-4.25-1.8a7.168 7.168 0 0 0-3.7 1 7.221 7.221 0 0 0-2.7 2.6c-.667 1.1-1 2.317-1 3.65V46h-1.6V32c0-2.4-.567-4.267-1.7-5.6-1.133-1.367-2.6-2.05-4.4-2.05-1.2 0-2.35.3-3.45.9a7.763 7.763 0 0 0-2.65 2.45c-.667 1-1 2.1-1 3.3v15h-1.6V23.5Zm48.198 23.05c-2.134 0-4.117-.533-5.95-1.6a11.948 11.948 0 0 1-4.35-4.3 11.534 11.534 0 0 1-1.6-5.9c0-2.1.533-4.05 1.6-5.85a11.829 11.829 0 0 1 4.35-4.35 11.626 11.626 0 0 1 5.95-1.6c2.166 0 4.216.583 6.15 1.75 1.933 1.133 3.283 2.617 4.05 4.45V23.5h1.6V46h-1.6v-5.6c-.9 1.867-2.3 3.367-4.2 4.5-1.867 1.1-3.867 1.65-6 1.65Zm.1-1.4a9.79 9.79 0 0 0 5.1-1.4 10.636 10.636 0 0 0 3.7-3.8c.933-1.6 1.4-3.333 1.4-5.2 0-1.833-.467-3.55-1.4-5.15a10.52 10.52 0 0 0-3.75-3.8 9.535 9.535 0 0 0-5.1-1.45c-1.834 0-3.55.483-5.15 1.45a11.342 11.342 0 0 0-3.8 3.85c-.934 1.6-1.4 3.317-1.4 5.15 0 1.833.466 3.55 1.4 5.15a11.344 11.344 0 0 0 3.85 3.8c1.6.933 3.316 1.4 5.15 1.4Zm18.011-21.65h1.6v5c.733-1.667 1.983-3 3.75-4 1.766-1.033 3.716-1.55 5.85-1.55 2.766 0 4.95.883 6.55 2.65 1.633 1.733 2.45 4.167 2.45 7.3V46h-1.6V32.9c0-2.7-.667-4.8-2-6.3-1.3-1.5-3.134-2.25-5.5-2.25-1.734 0-3.334.4-4.8 1.2a9.089 9.089 0 0 0-3.45 3.2c-.834 1.367-1.25 2.917-1.25 4.65V46h-1.6V23.5Z"/></svg>