<svg xmlns="http://www.w3.org/2000/svg" width="103" height="39" fill="none"><path fill="#463530" d="M20.28 19.46a1.2 1.2 0 0 1 .64.16.96.96 0 0 1 .38.42c.093.173.14.367.14.58 0 .2-.047.4-.14.6-.027.04-.06.053-.1.04a.193.193 0 0 1-.1-.08c-.027-.267-.153-.5-.38-.7-.213-.213-.553-.32-1.02-.32-.507 0-.993.133-1.46.4-.453.267-.92.733-1.4 1.4-.467.667-.947 1.567-1.44 2.7-.48 1.133-1 2.567-1.56 4.3.307-.013.627-.02.96-.02h1.06c.067.027.093.067.08.12 0 .04-.06.073-.18.1l-1 .04a27.64 27.64 0 0 0-1.02.06c-.04.147-.087.28-.14.4-.547 1.747-1.107 3.207-1.68 4.38-.573 1.187-1.16 2.133-1.76 2.84-.6.72-1.207 1.227-1.82 1.52-.627.307-1.26.46-1.9.46-.453 0-.773-.1-.96-.3a.96.96 0 0 1-.3-.7c0-.12.027-.253.08-.4.053-.133.12-.253.2-.36.04-.04.08-.047.12-.02.027.027.04.06.04.1a.646.646 0 0 0-.06.36c.013.147.073.28.18.4.093.133.24.24.44.32.187.093.433.14.74.14.32 0 .64-.04.96-.12.307-.08.62-.233.94-.46.307-.213.62-.52.94-.92.307-.4.627-.927.96-1.58.333-.64.68-1.42 1.04-2.34.36-.92.733-2.013 1.12-3.28.027-.067.047-.127.06-.18.013-.067.033-.133.06-.2-.227.027-.453.06-.68.1a6.072 6.072 0 0 0-.68.12c-.067-.013-.087-.047-.06-.1.04-.053.1-.107.18-.16.093-.053.2-.1.32-.14.12-.053.233-.087.34-.1.107-.013.213-.02.32-.02l.36-.04c.48-1.44.993-2.74 1.54-3.9.56-1.173 1.147-2.173 1.76-3 .613-.84 1.247-1.487 1.9-1.94.653-.453 1.313-.68 1.98-.68ZM16.425 34c-.173 0-.327-.08-.46-.24-.133-.173-.2-.393-.2-.66 0-.213.027-.46.08-.74.067-.293.147-.6.24-.92.107-.32.233-.64.38-.96.147-.32.313-.62.5-.9-.147.107-.3.227-.46.36-.16.12-.293.233-.4.34-.04.027-.073.02-.1-.02-.027-.053-.033-.1-.02-.14.093-.093.213-.2.36-.32s.3-.24.46-.36c.173-.12.347-.233.52-.34.187-.12.36-.22.52-.3.053-.013.093 0 .12.04.04.04.053.087.04.14a7.417 7.417 0 0 0-1.04 1.82c-.253.653-.38 1.28-.38 1.88 0 .387.113.58.34.58.173 0 .387-.113.64-.34.267-.24.54-.547.82-.92.28-.387.56-.82.84-1.3.293-.48.56-.967.8-1.46a.537.537 0 0 1 .22-.24c.12-.08.247-.12.38-.12.173 0 .233.053.18.16-.187.347-.353.673-.5.98a6.105 6.105 0 0 0-.36.88 6.814 6.814 0 0 0-.22.9c-.04.307-.06.64-.06 1 0 .427.12.64.36.64.107 0 .227-.053.36-.16.133-.12.267-.273.4-.46a.1.1 0 0 1 .12 0c.04.027.047.073.02.14a3.5 3.5 0 0 1-.66.74c-.24.2-.473.3-.7.3-.173 0-.32-.087-.44-.26-.12-.173-.18-.407-.18-.7 0-.32.027-.66.08-1.02.067-.373.167-.747.3-1.12-.253.493-.52.933-.8 1.32-.28.373-.553.693-.82.96a4.08 4.08 0 0 1-.72.62c-.227.133-.413.2-.56.2Zm8.097-4.56c0 .2-.02.433-.06.7a8.51 8.51 0 0 1-.16.8c.266-.64.56-1.14.88-1.5.32-.373.666-.56 1.04-.56.146 0 .28.04.4.12.12.08.18.193.18.34 0 .107-.04.247-.12.42-.08.16-.16.28-.24.36-.08.053-.12.033-.12-.06 0-.227-.154-.34-.46-.34-.467 0-.887.353-1.26 1.06-.374.693-.727 1.66-1.06 2.9-.027.133-.12.22-.28.26-.147.04-.274.06-.38.06-.147 0-.18-.073-.1-.22.12-.28.233-.58.34-.9.106-.333.206-.667.3-1 .106-.333.193-.66.26-.98.066-.32.12-.613.16-.88.053-.4-.014-.6-.2-.6-.107 0-.234.06-.38.18-.134.12-.26.26-.38.42-.054.027-.1.027-.14 0-.04-.04-.047-.087-.02-.14.2-.253.42-.48.66-.68.253-.213.486-.32.7-.32.293 0 .44.187.44.56Zm8.126 3.28a.1.1 0 0 1 .12 0c.04.027.053.067.04.12a4.95 4.95 0 0 1-.76.82c-.267.227-.52.34-.76.34-.413 0-.62-.267-.62-.8 0-.453.08-.953.24-1.5.16-.56.38-1.12.66-1.68a.56.56 0 0 0 .08-.28c0-.147-.067-.22-.2-.22-.494 0-1.04.34-1.64 1.02-.587.68-1.134 1.747-1.64 3.2-.027.08-.1.147-.22.2-.12.04-.233.06-.34.06-.147 0-.2-.06-.16-.18.226-.573.46-1.22.7-1.94a28 28 0 0 0 .66-2.14c.053-.253.006-.38-.14-.38-.133 0-.267.067-.4.2a3.722 3.722 0 0 0-.42.52c-.027.027-.06.02-.1-.02a.132.132 0 0 1-.02-.12c.146-.227.346-.46.6-.7.253-.24.527-.36.82-.36.333 0 .447.227.34.68-.053.293-.127.607-.22.94-.094.32-.194.64-.3.96a6.351 6.351 0 0 1 1.44-1.84c.28-.227.553-.407.82-.54.28-.133.54-.2.78-.2.16 0 .28.04.36.12a.36.36 0 0 1 .14.28c0 .173-.04.347-.12.52-.28.507-.52 1.04-.72 1.6-.187.547-.28 1.053-.28 1.52 0 .333.106.5.32.5.28 0 .593-.233.94-.7Zm2.22-2.44c-.04.027-.08.02-.12-.02-.026-.053-.026-.1 0-.14.187-.187.44-.4.76-.64s.64-.44.96-.6c.107 0 .16.06.16.18-.173.307-.346.64-.52 1-.16.36-.306.72-.44 1.08-.12.347-.22.687-.3 1.02-.08.32-.12.587-.12.8 0 .28.094.42.28.42.147 0 .287-.06.42-.18.147-.133.313-.307.5-.52.027-.027.06-.02.1.02.04.04.047.087.02.14-.24.293-.5.56-.78.8-.266.24-.52.36-.76.36-.346 0-.52-.22-.52-.66 0-.253.04-.553.12-.9.093-.36.207-.72.34-1.08.133-.36.28-.707.44-1.04.173-.333.34-.62.5-.86-.147.107-.333.247-.56.42a4.68 4.68 0 0 0-.48.4Zm1.8-2.26c-.04.04-.08.047-.12.02a.448.448 0 0 1-.06-.14 1.127 1.127 0 0 1-.02-.22c0-.08.02-.147.06-.2.347-.48.834-.993 1.46-1.54.04-.013.08 0 .12.04.04.027.047.053.02.08-.28.253-.547.56-.8.92a9 9 0 0 0-.66 1.04Zm5.268.94c.067.027.094.067.08.12-.013.053-.073.087-.18.1-.213.013-.453.027-.72.04a16.54 16.54 0 0 0-.78.06 19.357 19.357 0 0 0-.66 1.92c-.173.613-.26 1.12-.26 1.52 0 .453.174.68.52.68.347 0 .727-.307 1.14-.92.04-.027.08-.02.12.02.04.027.054.073.04.14a3.926 3.926 0 0 1-.88.96c-.16.12-.313.22-.46.3a.923.923 0 0 1-.36.1c-.293 0-.513-.087-.66-.26a1.106 1.106 0 0 1-.2-.66c0-.44.094-.993.28-1.66.187-.667.42-1.353.7-2.06a40.659 40.659 0 0 0-.96.16c-.066-.013-.086-.047-.06-.1.04-.053.1-.107.18-.16.094-.053.2-.1.32-.14a.84.84 0 0 1 .34-.08.864.864 0 0 1 .16-.02h.16c.187-.413.374-.807.56-1.18.187-.387.374-.74.56-1.06.08-.08.167-.147.26-.2a.784.784 0 0 1 .3-.12.446.446 0 0 1 .22-.02c.054 0 .074.02.06.06-.226.347-.453.733-.68 1.16-.213.427-.42.867-.62 1.32h.72c.24-.013.494-.02.76-.02ZM43.534 34c-.173 0-.326-.08-.46-.24-.133-.173-.2-.393-.2-.66 0-.213.027-.46.08-.74.067-.293.147-.6.24-.92.107-.32.234-.64.38-.96.147-.32.314-.62.5-.9-.146.107-.3.227-.46.36-.16.12-.293.233-.4.34-.04.027-.073.02-.1-.02-.026-.053-.033-.1-.02-.14.094-.093.214-.2.36-.32.147-.12.3-.24.46-.36.174-.12.347-.233.52-.34.187-.12.36-.22.52-.3.054-.013.094 0 .12.04.04.04.054.087.04.14a7.414 7.414 0 0 0-1.04 1.82c-.253.653-.38 1.28-.38 1.88 0 .387.114.58.34.58.174 0 .387-.113.64-.34.267-.24.54-.547.82-.92.28-.387.56-.82.84-1.3.294-.48.56-.967.8-1.46a.537.537 0 0 1 .22-.24c.12-.08.247-.12.38-.12.174 0 .234.053.18.16-.186.347-.353.673-.5.98a6.105 6.105 0 0 0-.36.88 6.799 6.799 0 0 0-.22.9c-.04.307-.06.64-.06 1 0 .427.12.64.36.64.107 0 .227-.053.36-.16.134-.12.267-.273.4-.46a.1.1 0 0 1 .12 0c.04.027.047.073.02.14a3.5 3.5 0 0 1-.66.74c-.24.2-.473.3-.7.3-.173 0-.32-.087-.44-.26-.12-.173-.18-.407-.18-.7 0-.32.027-.66.08-1.02.067-.373.167-.747.3-1.12-.253.493-.52.933-.8 1.32-.28.373-.553.693-.82.96a4.087 4.087 0 0 1-.72.62c-.226.133-.413.2-.56.2Zm8.097-4.56c0 .2-.02.433-.06.7-.04.267-.093.533-.16.8.267-.64.56-1.14.88-1.5.32-.373.667-.56 1.04-.56.147 0 .28.04.4.12.12.08.18.193.18.34 0 .107-.04.247-.12.42-.08.16-.16.28-.24.36-.08.053-.12.033-.12-.06 0-.227-.153-.34-.46-.34-.467 0-.887.353-1.26 1.06-.373.693-.727 1.66-1.06 2.9-.027.133-.12.22-.28.26-.147.04-.273.06-.38.06-.147 0-.18-.073-.1-.22.12-.28.233-.58.34-.9.107-.333.207-.667.3-1 .107-.333.193-.66.26-.98.067-.32.12-.613.16-.88.053-.4-.013-.6-.2-.6-.107 0-.233.06-.38.18-.133.12-.26.26-.38.42-.053.027-.1.027-.14 0-.04-.04-.047-.087-.02-.14.2-.253.42-.48.66-.68.253-.213.487-.32.7-.32.293 0 .44.187.44.56Zm6.606.32c0 .187-.073.36-.22.52-.147.16-.347.307-.6.44a7.18 7.18 0 0 1-.88.34c-.32.107-.66.207-1.02.3l-.04.44v.48c0 .333.074.613.22.84.147.227.353.34.62.34s.514-.067.74-.2a2.23 2.23 0 0 0 .64-.54c.053-.027.093-.02.12.02.027.04.027.087 0 .14a3.302 3.302 0 0 1-.86.8c-.333.213-.687.32-1.06.32-.346 0-.633-.113-.86-.34-.213-.227-.32-.56-.32-1 0-.4.074-.82.22-1.26.147-.453.34-.867.58-1.24.24-.373.514-.68.82-.92.32-.24.653-.36 1-.36.253 0 .467.093.64.28.174.173.26.373.26.6Zm-1.32-.36c-.306 0-.58.133-.82.4s-.413.687-.52 1.26c.64-.093 1.107-.227 1.4-.4.307-.187.46-.393.46-.62a.727.727 0 0 0-.14-.46.456.456 0 0 0-.38-.18Zm9.11-.52c.266 0 .486.047.66.14.186.08.28.173.28.28 0 .147-.034.313-.1.5-.054.187-.114.34-.18.46-.028.027-.068.033-.12.02-.04-.027-.054-.06-.04-.1.04-.093.066-.2.08-.32a.83.83 0 0 0-.02-.32c-.068-.267-.254-.4-.56-.4a.8.8 0 0 0-.56.2c-.134.133-.2.333-.2.6 0 .213.052.42.16.62.12.187.246.38.38.58.146.187.272.393.38.62.12.213.18.453.18.72 0 .427-.154.787-.46 1.08-.294.293-.74.44-1.34.44-.414 0-.754-.073-1.02-.22-.268-.147-.4-.3-.4-.46 0-.12.072-.3.22-.54.146-.24.312-.433.5-.58.04-.027.072-.02.1.02.04.04.046.08.02.12a1.025 1.025 0 0 0-.24.38.583.583 0 0 0-.04.36c.04.227.14.4.3.52.172.107.372.16.6.16.346 0 .612-.093.8-.28a.94.94 0 0 0 .3-.72c0-.253-.06-.487-.18-.7a5.167 5.167 0 0 0-.4-.64c-.134-.213-.26-.42-.38-.62a1.5 1.5 0 0 1-.16-.68c0-.347.126-.64.38-.88.266-.24.62-.36 1.06-.36Zm2.509 4.94c.6-2.293 1.273-4.36 2.02-6.2.746-1.84 1.526-3.407 2.34-4.7.826-1.293 1.666-2.287 2.52-2.98.853-.707 1.68-1.06 2.48-1.06.293 0 .533.06.72.18.2.107.333.247.4.42.08.173.1.367.06.58-.027.213-.12.42-.28.62-.027.04-.06.053-.1.04-.04-.013-.06-.047-.06-.1.053-.267-.027-.52-.24-.76-.214-.24-.554-.36-1.02-.36-.627 0-1.267.247-1.92.74-.654.493-1.307 1.253-1.96 2.28-.654 1.013-1.3 2.293-1.94 3.84-.627 1.547-1.234 3.38-1.82 5.5.213-.413.46-.8.74-1.16.28-.373.566-.693.86-.96a3.95 3.95 0 0 1 .88-.62c.306-.16.6-.24.88-.24.16 0 .28.04.36.12.08.08.12.173.12.28 0 .173-.06.367-.18.58-.28.493-.514 1-.7 1.52-.174.52-.26.993-.26 1.42 0 .187.02.34.06.46.053.12.133.18.24.18.133 0 .273-.067.42-.2.16-.147.3-.307.42-.48.04-.027.08-.02.12.02.04.027.053.067.04.12-.08.12-.18.247-.3.38-.12.12-.254.24-.4.36a1.988 1.988 0 0 1-.42.26.978.978 0 0 1-.4.1c-.334 0-.5-.28-.5-.84 0-.48.08-1 .24-1.56.16-.573.353-1.08.58-1.52a.697.697 0 0 0 .12-.34c0-.12-.074-.18-.22-.18-.24 0-.5.093-.78.28-.28.187-.567.46-.86.82-.294.36-.574.8-.84 1.32-.267.507-.507 1.08-.72 1.72-.027.093-.1.167-.22.22a.71.71 0 0 1-.32.08c-.147 0-.2-.06-.16-.18Zm9.56-4.94c.36 0 .626.12.8.36.173.24.26.553.26.94 0 .453-.087.907-.26 1.36a5.509 5.509 0 0 1-.66 1.24c-.267.36-.56.653-.88.88-.307.227-.594.34-.86.34a.894.894 0 0 1-.76-.38c-.187-.253-.28-.613-.28-1.08a3.7 3.7 0 0 1 .22-1.2c.146-.427.34-.82.58-1.18a4.02 4.02 0 0 1 .84-.92c.32-.24.653-.36 1-.36Zm-1.2 4.5c.2 0 .393-.067.58-.2.2-.147.373-.333.52-.56.146-.24.26-.513.34-.82a3.28 3.28 0 0 0 .14-.96c0-.4-.067-.713-.2-.94-.134-.24-.354-.36-.66-.36-.2 0-.394.073-.58.22-.187.133-.354.32-.5.56-.134.227-.24.5-.32.82a3.87 3.87 0 0 0-.12.98c0 .84.266 1.26.8 1.26Zm7.592-4.48c.266 0 .48.12.64.36.16.24.24.547.24.92a3.95 3.95 0 0 1-.28 1.48c-.174.453-.42.86-.74 1.22a3.605 3.605 0 0 1-1.1.84c-.427.2-.894.3-1.4.3-.227 0-.414-.047-.56-.14a26.683 26.683 0 0 0-.62 2.12 8.921 8.921 0 0 0-.28 2.12c0 .293.153.42.46.38.2-.04.4-.12.6-.24.04-.013.06.007.06.06.013.067.006.12-.02.16-.16.093-.38.187-.66.28-.28.093-.547.14-.8.14a.404.404 0 0 1-.26-.08c-.067-.04-.1-.12-.1-.24 0-.68.106-1.467.32-2.36.213-.893.493-1.82.84-2.78l-.08-.12-.04-.16c-.014-.053.086-.113.3-.18.173-.48.36-.96.56-1.44.2-.48.4-.947.6-1.4.253-.56.366-.9.34-1.02-.014-.133-.094-.16-.24-.08a2.792 2.792 0 0 0-.66.54c-.027.027-.06.02-.1-.02-.027-.053-.034-.093-.02-.12.08-.093.186-.2.32-.32.133-.12.266-.233.4-.34.146-.12.286-.22.42-.3a.825.825 0 0 1 .38-.12c.106 0 .173.06.2.18.04.107.02.253-.06.44-.08.227-.187.493-.32.8-.12.293-.254.587-.4.88.373-.56.74-.993 1.1-1.3.36-.307.68-.46.96-.46Zm-2.14 4.72c.333 0 .64-.073.92-.22.293-.147.54-.347.74-.6.213-.267.373-.573.48-.92.12-.36.18-.753.18-1.18 0-.32-.06-.58-.18-.78a.541.541 0 0 0-.52-.32c-.307 0-.674.273-1.1.82-.427.547-.82 1.32-1.18 2.32l-.08.2a1.152 1.152 0 0 1-.06.2.94.94 0 0 0 .28.36 1 1 0 0 0 .52.12Z"/><path fill="#463530" d="M2.37 2.5h.96c1.58 0 2.74.37 3.48 1.11.74.72 1.11 1.79 1.11 3.21 0 .82-.24 1.61-.72 2.37-.48.74-1.06 1.24-1.74 1.5 1.72.28 3.05 1 3.99 2.16.94 1.16 1.41 2.68 1.41 4.56 0 1.5-.33 2.83-.99 3.99a7.007 7.007 0 0 1-2.73 2.67C6 24.69 4.73 25 3.33 25h-.96V2.5Zm1.2 7.92c.96 0 1.77-.35 2.43-1.05.66-.7.99-1.56.99-2.58 0-1.14-.28-2-.84-2.58-.54-.58-1.4-.87-2.58-.87h-.24v7.08h.24Zm0 13.74c1.18 0 2.25-.28 3.21-.84a6.27 6.27 0 0 0 2.28-2.4c.56-1.02.84-2.17.84-3.45 0-2.06-.55-3.61-1.65-4.65-1.08-1.06-2.64-1.59-4.68-1.59h-.24v12.93h.24Zm16.84 1.32c-1.36 0-2.59-.33-3.69-.99a7.332 7.332 0 0 1-2.58-2.67 7.375 7.375 0 0 1-.93-3.63c0-1.28.31-2.47.93-3.57.64-1.1 1.5-1.97 2.58-2.61 1.1-.66 2.32-.99 3.66-.99 1.32 0 2.52.33 3.6.99 1.1.64 1.96 1.51 2.58 2.61.62 1.1.93 2.29.93 3.57 0 1.34-.3 2.57-.9 3.69-.6 1.1-1.44 1.98-2.52 2.64-1.06.64-2.28.96-3.66.96Zm0-.84c1.14 0 2.18-.29 3.12-.87a6.07 6.07 0 0 0 2.19-2.31c.54-.98.81-2.05.81-3.21 0-1.14-.27-2.2-.81-3.18a6.239 6.239 0 0 0-2.22-2.34c-.94-.58-1.98-.87-3.12-.87-1.14 0-2.19.3-3.15.9-.94.58-1.69 1.36-2.25 2.34-.54.98-.81 2.04-.81 3.18 0 1.14.27 2.2.81 3.18.56.96 1.31 1.73 2.25 2.31.96.58 2.02.87 3.18.87Zm14.904.54c-1.48 0-2.71-.45-3.69-1.35-.96-.9-1.44-2.14-1.44-3.72V6.07h.96v5.43h4.14v.84h-4.14v7.77c0 1.32.39 2.36 1.17 3.12.8.74 1.8 1.11 3 1.11v.84Zm5.793.15c-.96 0-1.81-.16-2.55-.48-.74-.34-1.27-.77-1.59-1.29v-1.59c.38.86.9 1.5 1.56 1.92.66.4 1.5.6 2.52.6.98 0 1.77-.3 2.37-.9.6-.62.9-1.41.9-2.37 0-.82-.17-1.45-.51-1.89-.34-.46-.89-.92-1.65-1.38l-1.14-.66c-.82-.5-1.44-.89-1.86-1.17-.4-.3-.72-.63-.96-.99-.24-.38-.36-.82-.36-1.32 0-.8.28-1.44.84-1.92.56-.48 1.29-.72 2.19-.72 1.1 0 2.02.25 2.76.75v1.32c-.62-.82-1.51-1.23-2.67-1.23-.64 0-1.16.16-1.56.48-.4.32-.6.73-.6 1.23 0 .44.12.83.36 1.17.24.32.57.62.99.9.44.28 1.16.7 2.16 1.26 1.02.58 1.77 1.18 2.25 1.8.48.6.72 1.39.72 2.37 0 1.24-.41 2.24-1.23 3-.8.74-1.78 1.11-2.94 1.11Zm7.16-13.83h.96v2.04c.92-1.58 2.4-2.37 4.44-2.37.98 0 1.83.28 2.55.84.72.54 1.22 1.36 1.5 2.46.26-.98.83-1.77 1.71-2.37.9-.62 1.91-.93 3.03-.93 1.46 0 2.59.43 3.39 1.29.8.84 1.2 2.04 1.2 3.6V25h-.96v-8.94c0-1.26-.33-2.25-.99-2.97-.64-.72-1.49-1.08-2.55-1.08-.8 0-1.54.2-2.22.6-.68.38-1.22.9-1.62 1.56-.4.66-.6 1.39-.6 2.19V25h-.96v-8.4c0-1.44-.34-2.56-1.02-3.36-.68-.82-1.56-1.23-2.64-1.23-.72 0-1.41.18-2.07.54-.64.36-1.17.85-1.59 1.47-.4.6-.6 1.26-.6 1.98v9h-.96V11.5Zm28.919 13.83c-1.28 0-2.47-.32-3.57-.96-1.1-.64-1.97-1.5-2.61-2.58-.64-1.1-.96-2.28-.96-3.54 0-1.26.32-2.43.96-3.51.64-1.1 1.51-1.97 2.61-2.61 1.1-.64 2.29-.96 3.57-.96 1.3 0 2.53.35 3.69 1.05 1.16.68 1.97 1.57 2.43 2.67V11.5h.96V25h-.96v-3.36c-.54 1.12-1.38 2.02-2.52 2.7-1.12.66-2.32.99-3.6.99Zm.06-.84c1.1 0 2.12-.28 3.06-.84.94-.58 1.68-1.34 2.22-2.28.56-.96.84-2 .84-3.12 0-1.1-.28-2.13-.84-3.09a6.306 6.306 0 0 0-2.25-2.28 5.72 5.72 0 0 0-3.06-.87c-1.1 0-2.13.29-3.09.87a6.81 6.81 0 0 0-2.28 2.31 6.03 6.03 0 0 0-.84 3.09c0 1.1.28 2.13.84 3.09.58.94 1.35 1.7 2.31 2.28.96.56 1.99.84 3.09.84ZM88.052 11.5h.96v3c.44-1 1.19-1.8 2.25-2.4 1.06-.62 2.23-.93 3.51-.93 1.66 0 2.97.53 3.93 1.59.98 1.04 1.47 2.5 1.47 4.38V25h-.96v-7.86c0-1.62-.4-2.88-1.2-3.78-.78-.9-1.88-1.35-3.3-1.35-1.04 0-2 .24-2.88.72-.86.46-1.55 1.1-2.07 1.92-.5.82-.75 1.75-.75 2.79V25h-.96V11.5Z"/></svg>